<?xml version="1.0" encoding="utf-8"?>
<!-- Generator: Adobe Illustrator 28.0.0, SVG Export Plug-In . SVG Version: 6.00 Build 0)  -->
<svg version="1.1" id="Layer_1" xmlns="http://www.w3.org/2000/svg" xmlns:xlink="http://www.w3.org/1999/xlink" x="0px" y="0px"
	 viewBox="0 0 1024 1536" style="enable-background:new 0 0 1024 1536;" xml:space="preserve">
<style type="text/css">
	.st0{fill:url(#SVGID_1_);}
	.st1{fill:url(#SVGID_00000034769194495712667850000013370047850875832960_);}
	.st2{fill:url(#SVGID_00000004547023535198025690000013974488290169480363_);}
	.st3{fill:url(#SVGID_00000031167462263356991520000001857043311239983803_);}
	.st4{fill:url(#SVGID_00000169523159780649994460000004832276649861868207_);}
	.st5{fill:url(#SVGID_00000055670019957885973620000018433175486648889504_);}
	.st6{fill:url(#SVGID_00000106115713415953804150000001406130640507690379_);}
	.st7{fill:url(#SVGID_00000001634694104770515350000012937791189256789948_);}
	.st8{fill:url(#SVGID_00000024707165218155510090000000010089999616884912_);}
	.st9{fill:url(#SVGID_00000045578542069653832950000011616574029160258738_);}
	.st10{fill:url(#SVGID_00000067923560257871398700000015469607522712048574_);}
	.st11{fill:url(#SVGID_00000108307508191230497440000011999468877128017830_);}
	.st12{fill:url(#SVGID_00000155129208347407818150000001859233785801914285_);}
	.st13{fill:url(#SVGID_00000026150375052877205110000014387037878940886206_);}
	.st14{fill:url(#SVGID_00000056409259203719855410000007621069728156628354_);}
</style>
<rect width="1024" height="1536"/>
<g>
	<g>
		<g>
			<linearGradient id="SVGID_1_" gradientUnits="userSpaceOnUse" x1="594.7298" y1="816.5253" x2="594.7298" y2="640.4623">
				<stop  offset="0.09" style="stop-color:#8E8E8D"/>
				<stop  offset="0.5038" style="stop-color:#D7D7D7"/>
				<stop  offset="0.6194" style="stop-color:#D2D2D2"/>
				<stop  offset="0.7526" style="stop-color:#C4C4C4"/>
				<stop  offset="0.894" style="stop-color:#ADADAD"/>
				<stop  offset="1" style="stop-color:#979797"/>
			</linearGradient>
			<path class="st0" d="M675.11,640.46h-37.29c-0.83,0-1.5,0.67-1.5,1.5s0.67,1.5,1.5,1.5c13.92,0.28,18.98,8.18,15.55,18.49
				c-3.44,10.31-46.43,127.58-46.43,127.58c-6.54-17.72-35.22-95.55-39.92-109.13c-0.97-2.8-1.89-5.41-2.75-7.82
				c-3.78-10.61-6.27-17.63-5.41-21.79c0.77-3.75,8.92-6.56,11.85-7.29c0.29-0.02,0.58-0.03,0.87-0.04
				c0.83-0.05,1.46-0.75,1.42-1.58c-0.05-0.83-0.74-1.46-1.58-1.41c-16.41,0.91-34.49,0.93-55.2,0.07c-0.13-0.02-0.26-0.04-0.4-0.06
				c-0.18-0.02-0.35-0.01-0.51,0.03c-0.3-0.01-0.59-0.02-0.89-0.04c-0.85-0.04-1.53,0.61-1.56,1.43c-0.04,0.83,0.61,1.53,1.43,1.56
				c0.55,0.02,1.09,0.04,1.63,0.07c9.53,1.39,16.14,6.16,20.18,14.57c4.9,10.23,58.84,155.97,59.38,157.44
				c0.22,0.59,0.78,0.98,1.41,0.98h2.59c0.62,0,1.19-0.39,1.4-0.97c0.57-1.51,56.8-151.5,62.05-161.86
				c4.75-9.36,10.84-10.18,11.35-10.23h0.83c0.83,0,1.5-0.67,1.5-1.5S675.94,640.46,675.11,640.46z"/>
			
				<linearGradient id="SVGID_00000056385626832767309520000016608265197074924211_" gradientUnits="userSpaceOnUse" x1="206.4902" y1="814.6054" x2="206.4902" y2="641.1201">
				<stop  offset="0.09" style="stop-color:#8E8E8D"/>
				<stop  offset="0.5038" style="stop-color:#D7D7D7"/>
				<stop  offset="0.6194" style="stop-color:#D2D2D2"/>
				<stop  offset="0.7526" style="stop-color:#C4C4C4"/>
				<stop  offset="0.894" style="stop-color:#ADADAD"/>
				<stop  offset="1" style="stop-color:#979797"/>
			</linearGradient>
			<path style="fill:url(#SVGID_00000056385626832767309520000016608265197074924211_);" d="M234.98,811.61h-3.29
				c-7.84,0-14.2-6.36-14.2-14.2v-140.1c0-7.28,5.9-13.19,13.19-13.19h4.3c0.83,0,1.5-0.67,1.5-1.5s-0.67-1.5-1.5-1.5H178
				c-0.83,0-1.5,0.67-1.5,1.5s0.67,1.5,1.5,1.5h4.3c7.28,0,13.19,5.9,13.19,13.19v140.1c0,7.84-6.36,14.2-14.2,14.2H178
				c-0.83,0-1.5,0.67-1.5,1.5s0.67,1.5,1.5,1.5h56.97c0.83,0,1.5-0.67,1.5-1.5S235.81,811.61,234.98,811.61z"/>
			
				<linearGradient id="SVGID_00000035522107906931434810000009837613188289626290_" gradientUnits="userSpaceOnUse" x1="763.4692" y1="814.4501" x2="763.4692" y2="640.9872">
				<stop  offset="0.09" style="stop-color:#8E8E8D"/>
				<stop  offset="0.5038" style="stop-color:#D7D7D7"/>
				<stop  offset="0.6194" style="stop-color:#D2D2D2"/>
				<stop  offset="0.7526" style="stop-color:#C4C4C4"/>
				<stop  offset="0.894" style="stop-color:#ADADAD"/>
				<stop  offset="1" style="stop-color:#979797"/>
			</linearGradient>
			<path style="fill:url(#SVGID_00000035522107906931434810000009837613188289626290_);" d="M837.47,811.45
				c-0.03,0-0.72-0.03-1.88-0.07c-13.41-0.62-15.81-3.28-22.79-13.13c-6.64-9.36-38.19-58.84-44.61-68.91
				c18.53-4.71,42.56-21.8,41.58-47.32c-0.93-23.99-20.29-35.62-38.11-38.52c-4.94-0.8-10.66-1.35-16.94-1.72
				c-0.04,0-0.08-0.01-0.13-0.01c-11.87-0.7-25.74-0.78-40.06-0.78h-25.01c-0.83,0-1.5,0.67-1.5,1.5s0.67,1.5,1.5,1.5h2.27
				c8.7,0,15.75,7.05,15.75,15.75V797.2c0,7.87-6.38,14.25-14.25,14.25h-3.77c-0.83,0-1.5,0.67-1.5,1.5s0.67,1.5,1.5,1.5h58.04
				c0.83,0,1.5-0.67,1.5-1.5s-0.67-1.5-1.5-1.5h-3.77c-7.87,0-14.25-6.38-14.25-14.25v-64.57h17.96
				c3.74,5.89,30.07,47.3,38.21,59.83c9.85,15.18,17.7,21.37,27.09,21.37c7.41,0,18.52,0.38,22.79,0.54
				c0.57,0.03,1.16,0.05,1.77,0.07c0.02,0,0.03,0,0.05,0c0.8,0,1.47-0.64,1.5-1.45C838.94,812.18,838.3,811.48,837.47,811.45z
				 M729.55,728.29v-84.25c8.86,0.08,17.31,0.27,24.9,0.72c15.93,1.75,34.55,11.12,32.88,45.77c-1.34,27.87-21.8,37.75-38.91,37.75
				H729.55z"/>
			
				<linearGradient id="SVGID_00000124135315857031954100000014596629405426909353_" gradientUnits="userSpaceOnUse" x1="425.9508" y1="815.7343" x2="425.9508" y2="636.657">
				<stop  offset="0.09" style="stop-color:#8E8E8D"/>
				<stop  offset="0.5038" style="stop-color:#D7D7D7"/>
				<stop  offset="0.6194" style="stop-color:#D2D2D2"/>
				<stop  offset="0.7526" style="stop-color:#C4C4C4"/>
				<stop  offset="0.894" style="stop-color:#ADADAD"/>
				<stop  offset="1" style="stop-color:#979797"/>
			</linearGradient>
			<path style="fill:url(#SVGID_00000124135315857031954100000014596629405426909353_);" d="M425.39,636.66
				c-49.72,0-83.13,36.27-83.13,90.25c0,26.4,8.89,49.89,25.03,66.14c14.76,14.85,34.59,22.69,57.4,22.69c0.24,0,0.47,0,0.71,0
				c26.62-0.19,48.52-9.32,63.32-26.4c13.7-15.81,20.94-37.64,20.94-63.14C509.65,673.48,475,636.66,425.39,636.66z M426.33,812.07
				c-13.96,0.16-26.66-5.08-36.73-15.05c-15.25-15.11-23.99-40.43-23.99-69.47c0-51.37,24.4-85.89,60.73-85.89
				c36.25,0,61.56,35.04,61.56,85.2C487.9,767.78,471.72,811.65,426.33,812.07z"/>
			
				<radialGradient id="SVGID_00000047772056428670724700000005641600203892680636_" cx="428.0357" cy="639.5265" r="68.3623" gradientUnits="userSpaceOnUse">
				<stop  offset="0.4066" style="stop-color:#D7D7D7"/>
				<stop  offset="0.5448" style="stop-color:#D2D2D2;stop-opacity:0.7671"/>
				<stop  offset="0.7041" style="stop-color:#C4C4C4;stop-opacity:0.4986"/>
				<stop  offset="0.8732" style="stop-color:#ADADAD;stop-opacity:0.2136"/>
				<stop  offset="1" style="stop-color:#979797;stop-opacity:0"/>
			</radialGradient>
			<path style="fill:url(#SVGID_00000047772056428670724700000005641600203892680636_);" d="M425.39,636.66
				c-49.72,0-83.13,36.27-83.13,90.25c0,26.4,8.89,49.89,25.03,66.14c14.76,14.85,34.59,22.69,57.4,22.69c0.24,0,0.47,0,0.71,0
				c26.62-0.19,48.52-9.32,63.32-26.4c13.7-15.81,20.94-37.64,20.94-63.14C509.65,673.48,475,636.66,425.39,636.66z M426.33,812.07
				c-13.96,0.16-26.66-5.08-36.73-15.05c-15.25-15.11-23.99-40.43-23.99-69.47c0-51.37,24.4-85.89,60.73-85.89
				c36.25,0,61.56,35.04,61.56,85.2C487.9,767.78,471.72,811.65,426.33,812.07z"/>
			
				<linearGradient id="SVGID_00000024700255831237748580000002611932452274076310_" gradientUnits="userSpaceOnUse" x1="283.4137" y1="814.6054" x2="283.4137" y2="641.1201">
				<stop  offset="0.09" style="stop-color:#8E8E8D"/>
				<stop  offset="0.5038" style="stop-color:#D7D7D7"/>
				<stop  offset="0.6194" style="stop-color:#D2D2D2"/>
				<stop  offset="0.7526" style="stop-color:#C4C4C4"/>
				<stop  offset="0.894" style="stop-color:#ADADAD"/>
				<stop  offset="1" style="stop-color:#979797"/>
			</linearGradient>
			<path style="fill:url(#SVGID_00000024700255831237748580000002611932452274076310_);" d="M333.46,811.62
				c-0.13-0.02-13.56-2.29-24.3-16.41c-10.38-13.64-55.95-74.81-62.57-83.71l48.14-55.18c6.77-7.76,16.55-12.21,26.85-12.21
				c0.83,0,1.5-0.67,1.5-1.5s-0.67-1.5-1.5-1.5H274.8c-0.83,0-1.5,0.67-1.5,1.5s0.67,1.5,1.5,1.5h6.05c8.02,0,12.31,9.44,7.04,15.48
				l-43.94,50.37c-0.09,0.04-0.17,0.09-0.26,0.15c-0.26,0.2-0.44,0.46-0.54,0.75l-10.68,12.24c-0.46,0.52-0.49,1.29-0.09,1.85
				c0.45,0.63,44.62,63.09,53.81,75.68c7.35,10.08,17.43,10.98,31.36,12.22c4.58,0.41,9.77,0.87,15.45,1.71
				c0.07,0.01,0.15,0.02,0.22,0.02c0.73,0,1.37-0.53,1.48-1.27C334.83,812.52,334.27,811.75,333.46,811.62z"/>
		</g>
	</g>
	<g>
		<g>
			
				<linearGradient id="SVGID_00000083083284218713720700000004736053564421341594_" gradientUnits="userSpaceOnUse" x1="293.2483" y1="897.0341" x2="293.2483" y2="860.3886">
				<stop  offset="0" style="stop-color:#B8B8B8"/>
				<stop  offset="0.1996" style="stop-color:#BFBFBF"/>
				<stop  offset="0.5038" style="stop-color:#C3C3C3"/>
				<stop  offset="0.8143" style="stop-color:#BEBEBE"/>
				<stop  offset="1" style="stop-color:#B8B8B8"/>
			</linearGradient>
			<path style="fill:url(#SVGID_00000083083284218713720700000004736053564421341594_);" d="M295.75,893.03
				c-7.72,0-14.01-6.43-14.01-14.32s6.28-14.32,14.01-14.32c3.73,0,7.25,1.49,9.89,4.18l2.86-2.8c-3.4-3.47-7.93-5.38-12.75-5.38
				c-9.93,0-18.01,8.22-18.01,18.32c0,10.1,8.08,18.32,18.01,18.32c4.96,0,9.58-2.01,13.01-5.66l-2.91-2.74
				C303.18,891.47,299.59,893.03,295.75,893.03z"/>
			
				<linearGradient id="SVGID_00000152945784012851110750000008320421343307595415_" gradientUnits="userSpaceOnUse" x1="668.1401" y1="897.0341" x2="668.1401" y2="860.3886">
				<stop  offset="0" style="stop-color:#B8B8B8"/>
				<stop  offset="0.1996" style="stop-color:#BFBFBF"/>
				<stop  offset="0.5038" style="stop-color:#C3C3C3"/>
				<stop  offset="0.8143" style="stop-color:#BEBEBE"/>
				<stop  offset="1" style="stop-color:#B8B8B8"/>
			</linearGradient>
			<path style="fill:url(#SVGID_00000152945784012851110750000008320421343307595415_);" d="M670.64,893.03
				c-7.72,0-14.01-6.43-14.01-14.32s6.28-14.32,14.01-14.32c3.73,0,7.25,1.49,9.89,4.18l2.86-2.8c-3.4-3.47-7.93-5.38-12.75-5.38
				c-9.93,0-18.01,8.22-18.01,18.32c0,10.1,8.08,18.32,18.01,18.32c4.96,0,9.58-2.01,13.01-5.65l-2.91-2.74
				C678.07,891.47,674.48,893.03,670.64,893.03z"/>
			
				<linearGradient id="SVGID_00000000197366847564949830000006357156455839302574_" gradientUnits="userSpaceOnUse" x1="353.134" y1="897.0341" x2="353.134" y2="860.3886">
				<stop  offset="0" style="stop-color:#B8B8B8"/>
				<stop  offset="0.1996" style="stop-color:#BFBFBF"/>
				<stop  offset="0.5038" style="stop-color:#C3C3C3"/>
				<stop  offset="0.8143" style="stop-color:#BEBEBE"/>
				<stop  offset="1" style="stop-color:#B8B8B8"/>
			</linearGradient>
			<path style="fill:url(#SVGID_00000000197366847564949830000006357156455839302574_);" d="M353.13,860.39
				c-9.89,0-17.93,8.22-17.93,18.32c0,10.1,8.04,18.32,17.93,18.32c9.89,0,17.93-8.22,17.93-18.32
				C371.07,868.61,363.02,860.39,353.13,860.39z M353.13,893.03c-7.68,0-13.93-6.43-13.93-14.32s6.25-14.32,13.93-14.32
				c7.68,0,13.93,6.42,13.93,14.32S360.82,893.03,353.13,893.03z"/>
			
				<linearGradient id="SVGID_00000158719255651579449100000000925000513408274362_" gradientUnits="userSpaceOnUse" x1="411.2199" y1="897.165" x2="411.2199" y2="860.5822">
				<stop  offset="0" style="stop-color:#B8B8B8"/>
				<stop  offset="0.1996" style="stop-color:#BFBFBF"/>
				<stop  offset="0.5038" style="stop-color:#C3C3C3"/>
				<stop  offset="0.8143" style="stop-color:#BEBEBE"/>
				<stop  offset="1" style="stop-color:#B8B8B8"/>
			</linearGradient>
			<path style="fill:url(#SVGID_00000158719255651579449100000000925000513408274362_);" d="M414.72,876.98
				c-0.74-0.24-1.52-0.46-2.31-0.69c-4.81-1.39-8.25-2.61-8.67-5.66c-0.19-1.38,0.18-2.6,1.11-3.62c1.46-1.61,4.12-2.54,6.95-2.42
				c5.21,0.22,7.93,4,8.04,4.16l3.29-2.27c-0.16-0.23-3.9-5.58-11.17-5.89c-4.05-0.18-7.81,1.22-10.08,3.72
				c-1.72,1.89-2.47,4.33-2.11,6.86c0.82,5.86,6.75,7.58,11.52,8.95c0.76,0.22,1.5,0.43,2.2,0.66c5.3,1.7,7.08,3.32,6.81,6.18
				c-0.39,4.16-3.76,6.41-9.23,6.18c-5.83-0.24-9.95-4.8-9.99-4.84l-3,2.64c0.21,0.24,5.26,5.88,12.82,6.2
				c0.29,0.01,0.58,0.02,0.86,0.02c7.07,0,11.95-3.79,12.52-9.81C424.97,880.27,418.05,878.05,414.72,876.98z"/>
			
				<linearGradient id="SVGID_00000084501937191414573430000005712398300256961188_" gradientUnits="userSpaceOnUse" x1="721.6535" y1="897.165" x2="721.6535" y2="860.5825">
				<stop  offset="0" style="stop-color:#B8B8B8"/>
				<stop  offset="0.1996" style="stop-color:#BFBFBF"/>
				<stop  offset="0.5038" style="stop-color:#C3C3C3"/>
				<stop  offset="0.8143" style="stop-color:#BEBEBE"/>
				<stop  offset="1" style="stop-color:#B8B8B8"/>
			</linearGradient>
			<path style="fill:url(#SVGID_00000084501937191414573430000005712398300256961188_);" d="M725.16,876.98
				c-0.74-0.24-1.51-0.46-2.31-0.69c-4.81-1.39-8.25-2.61-8.67-5.66c-0.19-1.38,0.18-2.6,1.12-3.62c1.46-1.61,4.13-2.54,6.95-2.42
				c5.21,0.22,7.93,4,8.04,4.16l3.29-2.27c-0.16-0.23-3.9-5.58-11.17-5.89c-4.03-0.18-7.81,1.22-10.08,3.72
				c-1.72,1.89-2.47,4.33-2.11,6.86c0.81,5.86,6.75,7.58,11.52,8.95c0.76,0.22,1.5,0.43,2.2,0.66c5.3,1.7,7.09,3.32,6.82,6.18
				c-0.39,4.16-3.76,6.41-9.23,6.18c-5.83-0.24-9.95-4.8-9.99-4.84l-3,2.64c0.21,0.24,5.25,5.88,12.82,6.2
				c0.29,0.01,0.58,0.02,0.86,0.02c7.07,0,11.95-3.79,12.52-9.81C735.4,880.27,728.48,878.05,725.16,876.98z"/>
			
				<linearGradient id="SVGID_00000062910494347284666830000004441507352116640164_" gradientUnits="userSpaceOnUse" x1="470.1404" y1="897.2509" x2="470.1404" y2="860.5839">
				<stop  offset="0" style="stop-color:#B8B8B8"/>
				<stop  offset="0.1996" style="stop-color:#BFBFBF"/>
				<stop  offset="0.5038" style="stop-color:#C3C3C3"/>
				<stop  offset="0.8143" style="stop-color:#BEBEBE"/>
				<stop  offset="1" style="stop-color:#B8B8B8"/>
			</linearGradient>
			<polygon style="fill:url(#SVGID_00000062910494347284666830000004441507352116640164_);" points="470.14,879.6 456.77,860.58 
				453,860.58 453,897.25 457,897.25 457,867.87 470.14,886.55 483.28,867.87 483.28,897.25 487.28,897.25 487.28,860.58 
				483.51,860.58 			"/>
			
				<linearGradient id="SVGID_00000023987327341841531760000010861966083566703014_" gradientUnits="userSpaceOnUse" x1="528.2412" y1="896.6259" x2="528.2412" y2="860.5839">
				<stop  offset="0" style="stop-color:#B8B8B8"/>
				<stop  offset="0.1996" style="stop-color:#BFBFBF"/>
				<stop  offset="0.5038" style="stop-color:#C3C3C3"/>
				<stop  offset="0.8143" style="stop-color:#BEBEBE"/>
				<stop  offset="1" style="stop-color:#B8B8B8"/>
			</linearGradient>
			<polygon style="fill:url(#SVGID_00000023987327341841531760000010861966083566703014_);" points="520.56,880.6 537.45,880.6 
				537.45,876.6 520.56,876.6 520.56,864.58 538.85,864.58 538.85,860.58 516.56,860.58 516.56,896.63 539.92,896.63 539.92,892.63 
				520.56,892.63 			"/>
			
				<linearGradient id="SVGID_00000054235947288983020500000013115905759487871112_" gradientUnits="userSpaceOnUse" x1="581.0337" y1="896.9033" x2="581.0337" y2="861.081">
				<stop  offset="0" style="stop-color:#B8B8B8"/>
				<stop  offset="0.1996" style="stop-color:#BFBFBF"/>
				<stop  offset="0.5038" style="stop-color:#C3C3C3"/>
				<stop  offset="0.8143" style="stop-color:#BEBEBE"/>
				<stop  offset="1" style="stop-color:#B8B8B8"/>
			</linearGradient>
			<polygon style="fill:url(#SVGID_00000054235947288983020500000013115905759487871112_);" points="567.14,865.08 578.37,865.08 
				578.37,896.9 582.37,896.9 582.37,865.08 594.93,865.08 594.93,861.08 567.14,861.08 			"/>
			
				<linearGradient id="SVGID_00000008151132661018492050000004110796090250951586_" gradientUnits="userSpaceOnUse" x1="623.1943" y1="896.9033" x2="623.1943" y2="860.7324">
				<stop  offset="0" style="stop-color:#B8B8B8"/>
				<stop  offset="0.1996" style="stop-color:#BFBFBF"/>
				<stop  offset="0.5038" style="stop-color:#C3C3C3"/>
				<stop  offset="0.8143" style="stop-color:#BEBEBE"/>
				<stop  offset="1" style="stop-color:#B8B8B8"/>
			</linearGradient>
			
				<rect x="621.19" y="860.73" style="fill:url(#SVGID_00000008151132661018492050000004110796090250951586_);" width="4" height="36.17"/>
		</g>
	</g>
</g>
</svg>
