<svg width="121" height="47" viewBox="0 0 121 47" fill="none" xmlns="http://www.w3.org/2000/svg">
<path d="M38.9012 35.6638C39.1731 31.149 38.5631 26.8132 37.3831 22.5371C36.203 18.2809 34.413 14.2964 32.1456 10.4513C32.318 10.4181 32.4373 10.3717 32.55 10.3783C34.4262 10.4446 36.3024 10.5838 38.1786 10.5706C39.1333 10.5706 39.6504 11.0413 40.194 11.691C42.9321 14.9793 45.1132 18.6057 46.7706 22.5437C46.8634 22.7625 46.8966 23.0874 46.8104 23.2995C44.9541 27.8276 42.3685 31.8982 39.0802 35.5246C39.0471 35.5577 39.0073 35.5776 38.9012 35.6572V35.6638Z" fill="#E00012"/>
<path d="M10.639 38.9587C15.1538 39.2305 19.4896 38.6206 23.7657 37.4405C28.022 36.2605 32.0064 34.4705 35.8516 32.2031C35.8847 32.3755 35.9311 32.4948 35.9245 32.6075C35.8582 34.4837 35.719 36.3599 35.7323 38.2361C35.7323 39.1908 35.2615 39.7079 34.6118 40.2515C31.3235 42.9896 27.6971 45.1707 23.7591 46.8281C23.5403 46.9209 23.2155 46.9541 23.0033 46.8679C18.4753 45.0116 14.4047 42.426 10.7783 39.1377C10.7451 39.1046 10.7252 39.0648 10.6457 38.9587H10.639Z" fill="#FFB100"/>
<path d="M35.4537 7.96473C26.391 7.56695 18.1371 10.179 10.3539 14.7402C10.3539 13.4474 10.3207 12.2077 10.3671 10.968C10.4003 9.94036 10.513 8.9194 10.6191 7.89843C10.639 7.71943 10.7251 7.49402 10.8577 7.38132C14.3648 4.25213 18.336 1.84556 22.6718 0.0423005C22.811 -0.0173663 23.0165 -0.0107367 23.1557 0.0423005C26.6031 1.46767 29.8185 3.29746 32.7687 5.59131C33.7035 6.31395 34.6051 7.07635 35.52 7.8255C35.5001 7.87191 35.4802 7.91832 35.4603 7.96473H35.4537Z" fill="#007033"/>
<path d="M14.6432 35.7299C13.3703 35.7299 12.177 35.763 10.9837 35.7232C9.94281 35.6835 8.90859 35.5774 7.87436 35.4713C7.6821 35.4514 7.44344 35.3454 7.31747 35.2061C4.24795 31.7322 1.83475 27.8472 0.064639 23.5645C-0.0215463 23.3523 -0.0215463 23.0341 0.064639 22.8219C1.71542 18.7513 4.00265 15.0653 6.82688 11.704C7.15173 11.3195 7.48984 10.9483 7.88099 10.4974C7.47658 19.6397 10.082 27.9069 14.6432 35.7365V35.7299Z" fill="#006798"/>
<path d="M70.1002 30.651C67.7002 30.651 65.6922 29.899 64.0762 28.395C62.4602 26.891 61.6522 24.779 61.6522 22.059C61.6522 19.355 62.4602 17.251 64.0762 15.747C65.7082 14.227 67.7162 13.467 70.1002 13.467C72.1962 13.467 73.9242 13.987 75.2842 15.027C76.6602 16.067 77.4682 17.459 77.7082 19.203L73.9402 19.995C73.7482 18.987 73.3002 18.187 72.5962 17.595C71.8922 17.003 71.0522 16.707 70.0762 16.707C68.7482 16.707 67.6442 17.179 66.7642 18.123C65.9002 19.051 65.4682 20.363 65.4682 22.059C65.4682 23.755 65.9002 25.067 66.7642 25.995C67.6282 26.923 68.7322 27.387 70.0762 27.387C71.0522 27.387 71.8762 27.131 72.5482 26.619C73.2202 26.091 73.6522 25.371 73.8442 24.459L77.6602 25.323C77.2602 26.987 76.3962 28.291 75.0682 29.235C73.7402 30.179 72.0842 30.651 70.1002 30.651ZM83.3066 30.459V23.523L77.6186 13.659H81.6506L85.2026 19.971L88.7786 13.659H92.7866L87.0986 23.523V30.459H83.3066ZM93.7082 30.459V13.659H105.252V16.899H97.5002V19.971H103.644V23.235H97.5002V27.195H105.516V30.459H93.7082ZM113.386 30.651C111.706 30.651 110.242 30.147 108.994 29.139C107.746 28.115 107.042 26.835 106.882 25.299L110.194 24.315C110.306 25.243 110.674 25.995 111.298 26.571C111.938 27.147 112.682 27.435 113.53 27.435C114.282 27.435 114.882 27.275 115.33 26.955C115.794 26.619 116.026 26.187 116.026 25.659C116.026 25.227 115.866 24.867 115.546 24.579C115.226 24.291 114.81 24.059 114.298 23.883C113.802 23.691 113.25 23.515 112.642 23.355C112.034 23.179 111.418 22.971 110.794 22.731C110.186 22.475 109.626 22.179 109.114 21.843C108.618 21.491 108.21 21.003 107.89 20.379C107.57 19.755 107.41 19.027 107.41 18.195C107.41 16.835 107.978 15.707 109.114 14.811C110.266 13.915 111.674 13.467 113.338 13.467C114.954 13.467 116.354 13.867 117.538 14.667C118.738 15.451 119.482 16.483 119.77 17.763L116.386 19.179C116.21 18.411 115.85 17.803 115.306 17.355C114.778 16.907 114.122 16.683 113.338 16.683C112.682 16.683 112.162 16.819 111.778 17.091C111.394 17.347 111.202 17.707 111.202 18.171C111.202 18.523 111.362 18.819 111.682 19.059C112.002 19.283 112.41 19.467 112.906 19.611C113.418 19.755 113.978 19.899 114.586 20.043C115.21 20.171 115.826 20.363 116.434 20.619C117.058 20.875 117.618 21.187 118.114 21.555C118.626 21.923 119.042 22.451 119.362 23.139C119.682 23.827 119.842 24.635 119.842 25.563C119.842 27.083 119.25 28.315 118.066 29.259C116.882 30.187 115.322 30.651 113.386 30.651Z" fill="black"/>
</svg>
