<svg width="238" height="583" viewBox="0 0 238 583" fill="none" xmlns="http://www.w3.org/2000/svg">
<g opacity="0.2">
<path d="M132.064 483.599C188.106 486.973 241.927 479.402 295.007 464.754C347.84 450.105 397.299 427.886 445.03 399.741C445.442 401.881 446.018 403.362 445.936 404.761C445.113 428.05 443.384 451.34 443.549 474.629C443.549 486.48 437.706 492.899 429.641 499.647C388.823 533.634 343.808 560.709 294.925 581.283C292.209 582.435 288.177 582.847 285.543 581.777C229.336 558.734 178.807 526.639 133.792 485.821C133.38 485.41 133.133 484.916 132.146 483.599H132.064Z" fill="#FFB100"/>
<path d="M440.091 98.8672C327.594 93.9296 225.137 126.354 128.523 182.972C128.523 166.925 128.112 151.536 128.688 136.147C129.099 123.391 130.498 110.718 131.815 98.0443C132.062 95.8223 133.132 93.0243 134.778 91.6253C178.312 52.7822 227.606 22.9092 281.427 0.525082C283.155 -0.215571 285.706 -0.133276 287.434 0.525082C330.227 18.2184 370.14 40.9318 406.762 69.4057C418.365 78.3759 429.557 87.8397 440.914 97.139C440.667 97.7151 440.42 98.2912 440.173 98.8672H440.091Z" fill="#007033"/>
<path d="M181.768 443.52C165.968 443.52 151.155 443.931 136.342 443.437C123.421 442.944 110.583 441.627 97.7455 440.31C95.359 440.063 92.3964 438.747 90.8328 437.018C52.7303 393.896 22.7751 345.671 0.802373 292.509C-0.267458 289.876 -0.267458 285.925 0.802373 283.292C21.2937 232.763 49.6854 187.007 84.7429 145.284C88.7754 140.511 92.9724 135.902 97.8278 130.306C92.8078 243.791 125.15 346.412 181.768 443.602V443.52Z" fill="#006798"/>
</g>
</svg>
