<svg width="321" height="818" viewBox="0 0 321 818" fill="none" xmlns="http://www.w3.org/2000/svg">
<g opacity="0.2">
<path d="M97.8815 4.97047C86.1897 15.8715 85.399 18.6956 94.0408 31.9689C105.45 49.309 116.86 62.1868 126.574 79.9222C128.89 84.1019 125.501 89.1854 120.7 88.6206C26.9964 77.2111 152.726 202.997 161.819 317.599C162.102 321.045 162.61 324.49 163.118 327.935C170.574 374.646 141.203 436.607 88.2231 411.077C113.245 382.441 77.0396 346.688 46.3133 344.824C21.4047 340.7 20.388 369.054 30.4418 384.587C60.4904 428.7 104.264 440.73 100.706 502.635C86.7545 493.767 75.6276 486.142 64.0487 479.364C43.0938 462.984 -63.0926 431.75 -54.5073 476.935C-53.2647 483.431 -49.9888 489.305 -45.5267 494.219C43.7151 592.667 171.421 647.116 288.565 705.349L287.549 708.004C239.652 696.03 195.37 671.912 150.015 652.652C122.677 639.774 96.8084 623.846 69.9794 609.895C69.9794 609.895 69.9229 609.895 69.8664 609.838C64.0487 606.901 58.0616 613.622 60.8857 619.497C98.5594 697.724 70.9396 736.528 38.3494 815.829L40.2133 817.015C74.4414 761.267 103.078 707.439 82.8573 640.225C127.196 664.004 261.002 750.874 314.943 725.231C320.647 722.52 321.89 714.895 317.428 710.433C313.7 706.761 309.577 703.542 304.38 701.678C255.297 676.769 206.101 652.03 157.075 626.896C88.5055 587.302 3.95169 554.034 -40.0479 485.238C-49.9323 467.559 -35.6423 466.317 -20.9005 468.689C19.1454 475.241 52.4134 495.01 82.2925 521.443C94.1538 533.361 82.6314 553.638 89.0703 568.55C111.72 611.081 163.175 569.849 117.368 519.975C114.544 516.36 112.51 510.373 113.132 505.854C117.198 482.527 108.557 461.798 97.7121 441.578C232.196 424.52 158.769 251.572 119.684 172.553C118.554 170.294 117.481 168.034 116.577 165.662C108.387 144.255 67.0423 92.9132 109.969 92.9697C114.996 93.1956 119.966 92.5743 125.049 91.84C129.568 91.2187 132.618 86.7001 131.15 82.351C121.322 53.2062 74.4979 19.2604 97.7121 9.31953C100.48 7.85102 108.105 1.12965 104.885 9.40842e-06C105.902 0.395395 99.8584 3.16303 97.8815 4.97047ZM43.4327 374.985C41.7383 372.443 42.0772 368.603 42.5855 364.649C43.0939 360.356 46.8217 357.024 51.1708 357.363C72.1257 359.057 84.4388 383.514 66.195 400.289C58.0616 391.534 49.5328 384.022 43.4892 374.929L43.4327 374.985ZM113.527 559.908C114.148 561.207 113.866 562.901 113.414 564.709C112.68 567.646 109.573 569.227 106.693 568.267C95.2833 564.483 93.9843 551.605 100.649 537.823C106.071 546.86 110.364 553.13 113.471 559.908L113.527 559.908Z" fill="#F1D74B"/>
</g>
</svg>
