<svg width="149" height="69" viewBox="0 0 149 69" fill="none" xmlns="http://www.w3.org/2000/svg">
<path d="M147.147 28.2161C145.177 26.1008 144.672 25.9485 142.282 27.5223C139.159 29.5868 136.827 31.6598 133.628 33.4198C132.871 33.8344 131.962 33.2167 132.063 32.3536C134.117 15.3635 111.431 38.1665 90.7575 39.808C90.1346 39.8588 89.5117 39.9434 88.8973 40.0449C80.4713 41.3987 69.2927 36.0681 73.8971 26.4646C79.0571 30.9998 85.505 24.4339 85.8501 18.8664C86.5908 14.3481 81.4814 14.162 78.6783 15.9896C70.7237 21.4386 68.552 29.3753 57.3903 28.7322C58.9896 26.2023 60.3701 24.1885 61.5906 22.0817C64.5536 18.2826 70.1766 -0.97517 62.0283 0.590158C60.8583 0.81015 59.7893 1.4109 58.9138 2.21472C41.1612 18.3926 31.3379 41.551 20.8243 62.7887L20.3445 62.6026C22.5078 53.9213 26.8513 45.8916 30.3277 37.6673C32.651 32.709 35.5214 28.0215 38.0382 23.1563C38.0382 23.1563 38.0382 23.1394 38.0467 23.1309C38.577 22.0817 37.3648 20.9902 36.3126 21.4979C22.2048 28.3261 15.2014 23.3255 0.899893 17.4111L0.689453 17.7495C10.74 23.9516 20.4539 29.1468 32.5752 25.4831C28.2907 33.5213 12.6172 57.7881 17.2384 67.5608C17.7266 68.5931 19.1071 68.8216 19.9068 68.0093C20.5718 67.3324 21.1442 66.5878 21.4809 65.6401C25.9759 56.7389 30.4372 47.8208 34.9743 38.9365C42.1124 26.5069 48.1141 11.1752 60.5216 3.19622C63.7119 1.40244 63.9391 3.99158 63.5014 6.66533C62.323 13.9251 58.7539 19.9579 53.9896 25.3731C51.8431 27.5223 48.1814 25.4323 45.4962 26.6C37.8278 30.7122 45.2605 40.0364 54.2589 31.7275C54.9155 31.2114 55.9929 30.8475 56.8094 30.9575C61.0182 31.6937 64.7556 30.1283 68.4005 28.1653C71.4729 52.5506 102.677 39.2326 116.928 32.1506C117.332 31.9475 117.744 31.7444 118.165 31.5837C122.029 30.103 131.288 22.6063 131.28 30.3906C131.238 31.296 131.356 32.2098 131.482 33.1236C131.591 33.9444 132.408 34.4943 133.191 34.232C138.452 32.4467 144.571 23.9601 146.364 28.1653C146.625 28.6645 147.837 30.0522 148.048 29.4684C147.98 29.6545 147.475 28.5545 147.147 28.1992V28.2161ZM80.4123 18.3418C80.8669 18.0372 81.5571 18.0965 82.2726 18.1895C83.047 18.2826 83.6447 18.9595 83.5858 19.7379C83.2743 23.537 78.8719 25.7623 75.8416 22.4625C77.4241 20.9902 78.7709 19.4418 80.4123 18.3418ZM47.0535 31.0506C46.8178 31.1606 46.5063 31.1183 46.1865 31.0337C45.6562 30.9068 45.37 30.3399 45.5467 29.8237C46.2286 27.7507 48.5518 27.5138 51.035 28.7238C49.402 29.7053 48.274 30.4837 47.0535 31.0506Z" fill="#F4F8FB" stroke="#F4F8FB"/>
</svg>
